<svg width="67" height="67" viewBox="0 0 67 67" fill="none" xmlns="http://www.w3.org/2000/svg">
<rect width="67" height="67" rx="12" fill="#FFC633" fill-opacity="0.08"/>
<path fill-rule="evenodd" clip-rule="evenodd" d="M20.6667 23.1515C20.6667 22.3243 20.6667 21.9108 20.8409 21.6557C20.9932 21.4328 21.229 21.2809 21.4949 21.2345C21.7993 21.1815 22.1758 21.3526 22.9288 21.6949L43.591 31.0868C45.6271 32.0123 46.6451 32.475 46.961 33.1163C47.2354 33.6735 47.2354 34.3265 46.961 34.8837C46.6451 35.5249 45.6271 35.9877 43.591 36.9132L22.9288 46.3051C22.1758 46.6474 21.7993 46.8185 21.4949 46.7655C21.229 46.7191 20.9932 46.5672 20.8409 46.3443C20.6667 46.0892 20.6667 45.6757 20.6667 44.8485V40.6017C20.6667 39.2 20.6667 38.4992 20.9177 37.9247C21.1391 37.4181 21.4962 36.9826 21.9495 36.6661C22.4636 36.3073 23.1508 36.1698 24.5253 35.8949L34 34L24.5253 32.1051C23.1508 31.8302 22.4636 31.6927 21.9495 31.3339C21.4962 31.0174 21.1391 30.5819 20.9177 30.0753C20.6667 29.5008 20.6667 28.8 20.6667 27.3983V23.1515Z" fill="#FFC633"/>
</svg>
