<svg width="67" height="67" viewBox="0 0 67 67" fill="none" xmlns="http://www.w3.org/2000/svg">
<rect width="67" height="67" rx="12" fill="#38D79F" fill-opacity="0.08"/>
<path fill-rule="evenodd" clip-rule="evenodd" d="M40.6375 37.9288C40.1668 37.6529 39.5883 37.6587 39.1199 37.937L36.7477 39.3503C36.2167 39.6668 35.5535 39.6297 35.0666 39.2494C34.2248 38.592 32.8695 37.4859 31.6904 36.3068C30.5113 35.1277 29.4052 33.7723 28.7478 32.9306C28.3675 32.4437 28.3304 31.7805 28.6469 31.2495L30.0602 28.8773C30.3397 28.4089 30.342 27.8257 30.066 27.355L26.5855 21.4095C26.2481 20.8345 25.578 20.5516 24.9298 20.7104C24.3003 20.8635 23.4829 21.2368 22.6261 22.0947C19.9432 24.7776 18.5183 29.3028 28.6075 39.392C38.6967 49.4812 43.2207 48.0575 45.9048 45.3734C46.7639 44.5143 47.136 43.6957 47.2902 43.065C47.4468 42.4181 47.1685 41.7526 46.5946 41.4163C45.1616 40.5781 42.0706 38.7682 40.6375 37.9288Z" fill="#38D79F"/>
</svg>
