<svg width="67" height="67" viewBox="0 0 67 67" fill="none" xmlns="http://www.w3.org/2000/svg">
<rect width="67" height="67" rx="12" fill="#FF6E66" fill-opacity="0.08"/>
<path d="M38.0909 34.4483H40.1364V38.2407L43.4636 40.1369L42.4409 41.8852L38.0909 39.4107V34.4483ZM49 38.4828C49 40.9795 47.9943 43.3739 46.2042 45.1393C44.4141 46.9047 41.9862 47.8966 39.4545 47.8966C35.65 47.8966 32.3636 45.691 30.8227 42.5172H21.7273C21.004 42.5172 20.3103 42.2339 19.7988 41.7295C19.2873 41.225 19 40.5409 19 39.8276V23.6897C19 22.1969 20.2136 21 21.7273 21H43.5455C44.2688 21 44.9625 21.2834 45.4739 21.7878C45.9854 22.2922 46.2727 22.9763 46.2727 23.6897V31.8931C47.9636 33.5876 49 35.9141 49 38.4828ZM29.9091 38.4828C29.9091 35.8469 31.0136 33.4666 32.7727 31.7586H21.7273V39.8276H30.0045C29.9091 39.3838 29.9091 38.94 29.9091 38.4828ZM39.4545 31.7586C37.6463 31.7586 35.912 32.4671 34.6334 33.7281C33.3547 34.9891 32.6364 36.6994 32.6364 38.4828C32.6364 40.2661 33.3547 41.9764 34.6334 43.2374C35.912 44.4985 37.6463 45.2069 39.4545 45.2069C41.2628 45.2069 42.9971 44.4985 44.2757 43.2374C45.5544 41.9764 46.2727 40.2661 46.2727 38.4828C46.2727 36.6994 45.5544 34.9891 44.2757 33.7281C42.9971 32.4671 41.2628 31.7586 39.4545 31.7586ZM43.5455 26.3793V23.6897H21.7273V26.3793H43.5455Z" fill="#FF6E66"/>
</svg>
