<svg width="67" height="67" viewBox="0 0 67 67" fill="none" xmlns="http://www.w3.org/2000/svg">
<rect width="67" height="67" rx="12" fill="#3642DA" fill-opacity="0.08"/>
<path d="M42.5427 36.688C43.0493 35.4467 43.3333 34.0907 43.3333 32.6667C43.3333 26.776 38.5573 22 32.6667 22C26.776 22 22 26.776 22 32.6667C22 38.5573 26.776 43.3333 32.6667 43.3333C34.0907 43.3333 35.448 43.0493 36.6907 42.5427" stroke="#6B75FF" stroke-width="1.5" stroke-linecap="round" stroke-linejoin="round"/>
<path d="M37.05 30.3511V30.3011H37H32.3425V29.3364C32.3425 28.81 32.2972 28.3993 32.2044 28.1072C32.1212 27.8083 31.9955 27.5691 31.8253 27.3927C31.6835 27.2443 31.509 27.1335 31.3029 27.0598C31.1055 26.9861 30.8726 26.95 30.6054 26.95C30.3208 26.95 30.045 26.9815 29.7782 27.0447C29.5208 27.0988 29.2549 27.1844 28.9804 27.3011L28.9337 27.321L28.9543 27.3674L29.3216 28.1952L29.3408 28.2384L29.385 28.2217C29.501 28.1779 29.64 28.1338 29.8023 28.0896L29.8023 28.0897L29.8039 28.0891C29.9717 28.0372 30.139 28.0113 30.3061 28.0113C30.5723 28.0113 30.7627 28.0681 30.886 28.1729L30.8859 28.173L30.8875 28.1742C31.0115 28.2715 31.0928 28.4193 31.1276 28.6239L31.1275 28.6239L31.1281 28.6263C31.1723 28.8262 31.1949 29.0804 31.1949 29.3899V30.3011H29.9252H29.8752V30.3511V31.3124V31.3624H29.9252H31.1949V35.0507C31.1949 35.3726 31.2131 35.6341 31.2502 35.8342L31.2501 35.8342L31.2507 35.8369C31.2969 36.0271 31.3575 36.1839 31.4338 36.3056L31.4338 36.3056L31.4348 36.3071C31.5092 36.4166 31.593 36.5171 31.6861 36.6085L31.6861 36.6085L31.6872 36.6096C31.8379 36.7482 32.0253 36.8581 32.248 36.9401L32.248 36.9401L32.2498 36.9407C32.4742 37.0141 32.7566 37.05 33.0952 37.05C33.5283 37.05 33.9521 36.9641 34.3661 36.7925C34.7795 36.6212 35.1516 36.3868 35.4824 36.0892L35.483 36.0887C35.8135 35.7824 36.0756 35.4396 36.2689 35.0603C36.4719 34.6709 36.5738 34.267 36.5738 33.8491C36.5738 33.3147 36.4166 32.9188 36.0919 32.6748C35.7817 32.426 35.38 32.3038 34.8912 32.3038C34.7076 32.3038 34.5242 32.3173 34.3407 32.3442C34.1661 32.3623 34.0002 32.394 33.8433 32.4393L33.8012 32.4514L33.8077 32.4947L33.9437 33.4026L33.952 33.4574L34.0056 33.4436C34.2097 33.3914 34.4322 33.3651 34.6735 33.3651C34.9405 33.3651 35.1194 33.4222 35.2235 33.5243L35.2235 33.5244L35.2248 33.5256C35.339 33.6296 35.399 33.7794 35.399 33.9826C35.399 34.2407 35.3333 34.4952 35.2008 34.7467C35.0678 34.9903 34.8904 35.208 34.668 35.4001L34.668 35.4001L34.6672 35.4007C34.454 35.5926 34.2095 35.7453 33.9334 35.859L33.9328 35.8592C33.6664 35.9725 33.4009 36.0288 33.1361 36.0288C32.8054 36.0288 32.5992 35.9538 32.4958 35.8218C32.4476 35.7544 32.4089 35.6536 32.3824 35.5153C32.356 35.377 32.3425 35.2046 32.3425 34.9973V31.3624H37H37.05V31.3124V30.3511Z" fill="#6B75FF" stroke="#6B75FF" stroke-width="0.1"/>
<path d="M42 36.6667C44.9454 36.6667 47.3334 39.0547 47.3334 42C47.3334 44.9453 44.9454 47.3333 42 47.3333C39.0547 47.3333 36.6667 44.9453 36.6667 42C36.6667 39.0547 39.0547 36.6667 42 36.6667" stroke="#6B75FF" stroke-width="1.5" stroke-linecap="round" stroke-linejoin="round"/>
<path d="M40.24 42.1747H43.8133" stroke="#6B75FF" stroke-width="1.5" stroke-linecap="round" stroke-linejoin="round"/>
<path d="M42.0253 43.9613V40.388" stroke="#6B75FF" stroke-width="1.5" stroke-linecap="round" stroke-linejoin="round"/>
</svg>
