<svg width="67" height="67" viewBox="0 0 67 67" fill="none" xmlns="http://www.w3.org/2000/svg">
<rect width="67" height="67" rx="12" fill="#DA36CA" fill-opacity="0.08"/>
<path fill-rule="evenodd" clip-rule="evenodd" d="M27.3334 46C27.3334 46.7364 26.7364 47.3333 26 47.3333C25.2636 47.3333 24.6667 46.7364 24.6667 46V35.3333C24.6667 34.5969 25.2636 34 26 34C26.7364 34 27.3334 34.5969 27.3334 35.3333V46ZM35.3334 46C35.3334 46.7364 34.7364 47.3333 34 47.3333C33.2636 47.3333 32.6667 46.7364 32.6667 46V22C32.6667 21.2636 33.2636 20.6667 34 20.6667C34.7364 20.6667 35.3334 21.2636 35.3334 22V46ZM43.3334 46C43.3334 46.7364 42.7364 47.3333 42 47.3333C41.2636 47.3333 40.6667 46.7364 40.6667 46V30C40.6667 29.2636 41.2636 28.6667 42 28.6667C42.7364 28.6667 43.3334 29.2636 43.3334 30V46Z" fill="#6D5FFE"/>
</svg>
