<svg width="15" height="20" viewBox="0 0 15 20" fill="none" xmlns="http://www.w3.org/2000/svg">
<path d="M7.5 4.5C8.16304 4.5 8.79893 4.76339 9.26777 5.23223C9.73661 5.70107 10 6.33696 10 7C10 7.3283 9.93534 7.65339 9.8097 7.95671C9.68406 8.26002 9.49991 8.53562 9.26777 8.76777C9.03562 8.99991 8.76002 9.18406 8.45671 9.3097C8.15339 9.43534 7.8283 9.5 7.5 9.5C6.83696 9.5 6.20107 9.23661 5.73223 8.76777C5.26339 8.29893 5 7.66304 5 7C5 6.33696 5.26339 5.70107 5.73223 5.23223C6.20107 4.76339 6.83696 4.5 7.5 4.5ZM7.5 0C9.35652 0 11.137 0.737498 12.4497 2.05025C13.7625 3.36301 14.5 5.14348 14.5 7C14.5 12.25 7.5 20 7.5 20C7.5 20 0.5 12.25 0.5 7C0.5 5.14348 1.2375 3.36301 2.55025 2.05025C3.86301 0.737498 5.64348 0 7.5 0ZM7.5 2C6.17392 2 4.90215 2.52678 3.96447 3.46447C3.02678 4.40215 2.5 5.67392 2.5 7C2.5 8 2.5 10 7.5 16.71C12.5 10 12.5 8 12.5 7C12.5 5.67392 11.9732 4.40215 11.0355 3.46447C10.0979 2.52678 8.82608 2 7.5 2Z" fill="#ABABAB"/>
</svg>
